<svg width="48" height="48" viewBox="0 0 48 48" fill="none" xmlns="http://www.w3.org/2000/svg">
<path fill-rule="evenodd" clip-rule="evenodd" d="M32.65 29.798L43.41 40.558C43.7882 40.9364 44.0006 41.4496 44.0004 41.9847C44.0002 42.5197 43.7875 43.0328 43.409 43.411C43.0305 43.7892 42.5173 44.0015 41.9823 44.0014C41.4472 44.0012 40.9342 43.7884 40.556 43.41L29.796 32.65C26.5794 35.1413 22.5345 36.3137 18.4842 35.9287C14.4339 35.5436 10.6825 33.63 7.99296 30.5772C5.30346 27.5244 3.87797 23.5616 4.0065 19.4951C4.13502 15.4285 5.80789 11.5637 8.6848 8.68679C11.5617 5.80988 15.4266 4.137 19.4931 4.00848C23.5596 3.87996 27.5224 5.30544 30.5752 7.99494C33.628 10.6844 35.5416 14.4359 35.9267 18.4862C36.3117 22.5365 35.1393 26.5814 32.648 29.798H32.65ZM20 32C23.1826 32 26.2348 30.7357 28.4853 28.4853C30.7357 26.2348 32 23.1826 32 20C32 16.8174 30.7357 13.7651 28.4853 11.5147C26.2348 9.26426 23.1826 7.99998 20 7.99998C16.8174 7.99998 13.7651 9.26426 11.5147 11.5147C9.26428 13.7651 7.99999 16.8174 7.99999 20C7.99999 23.1826 9.26428 26.2348 11.5147 28.4853C13.7651 30.7357 16.8174 32 20 32Z" fill="currentColor"/>
</svg>
