<svg version="1.1" viewBox="0 0 49 49" xmlns="http://www.w3.org/2000/svg">
    <g id="night" transform="matrix(2.020614, 0, 0, 2.020614, -42.887474, -41.928089)" style="">
        <g transform="translate(20,20)">
            <g class="am-weather-moon-star-1">
                <polygon fill="orange" points="3.3,1.5 4,2.7 5.2,3.3 4,4 3.3,5.2 2.7,4 1.5,3.3 2.7,2.7" stroke="none" stroke-miterlimit="10"></polygon>
            </g>
            <g class="am-weather-moon-star-2">
                <polygon fill="orange" points="3.3,1.5 4,2.7 5.2,3.3 4,4 3.3,5.2 2.7,4 1.5,3.3 2.7,2.7" stroke="none" stroke-miterlimit="10" transform="translate(20,10)"></polygon>
            </g>
            <g class="am-weather-moon">
                <path d="M14.5,13.2c0-3.7,2-6.9,5-8.7   c-1.5-0.9-3.2-1.3-5-1.3c-5.5,0-10,4.5-10,10s4.5,10,10,10c1.8,0,3.5-0.5,5-1.3C16.5,20.2,14.5,16.9,14.5,13.2z" fill="orange" stroke="orange" stroke-linejoin="round" stroke-width="2"></path>
            </g>
        </g>
    </g>
</svg>